<svg width="265" height="35" viewBox="0 0 265 35" fill="none" xmlns="http://www.w3.org/2000/svg">
<path d="M23.4876 0.75H14.0795L0 25.9041L4.67138 34.25H23.4876L28.1916 25.875L9.34275 25.8459L18.7835 9.125L32.8956 34.25H42.3037L23.4876 0.75Z" fill="#1657DD"/>
<path d="M45.2439 34.25H54.6519L35.8358 0.75H26.4277L45.2439 34.25Z" fill="#1657DD"/>
<path d="M57.5919 34.25H67L48.1838 0.75H38.7757L57.5919 34.25Z" fill="#1657DD"/>
<path d="M260.164 26.9145C258.598 26.9145 257.287 26.6062 256.232 25.9896C256.255 25.4423 256.33 24.976 256.458 24.5906C257.513 25.2073 258.741 25.5156 260.142 25.5156C261.046 25.5156 261.746 25.3498 262.243 25.0184C262.741 24.687 262.989 24.1898 262.989 23.527C262.989 22.9797 262.797 22.5404 262.413 22.209C262.036 21.8775 261.434 21.5731 260.605 21.2956L259.543 20.9141C258.458 20.5518 257.649 20.0893 257.114 19.5267C256.586 18.964 256.323 18.2434 256.323 17.3647C256.323 16.3241 256.696 15.5264 257.441 14.9714C258.187 14.4088 259.219 14.1274 260.537 14.1274C261.976 14.1274 263.204 14.3317 264.221 14.7402C264.198 15.1718 264.119 15.6227 263.983 16.0929C262.929 15.6921 261.795 15.4917 260.582 15.4917C258.775 15.4917 257.871 16.1006 257.871 17.3184C257.871 17.8811 258.07 18.332 258.47 18.6711C258.869 19.0026 259.456 19.3032 260.232 19.5729L261.351 19.9429C262.488 20.3437 263.309 20.8177 263.814 21.365C264.326 21.9045 264.582 22.6098 264.582 23.4807C264.582 24.5367 264.191 25.373 263.407 25.9896C262.624 26.6062 261.543 26.9145 260.164 26.9145Z" fill="#1657DD"/>
<path d="M246.233 26.6255V10.2428C246.76 10.0809 247.295 10 247.837 10V26.6255H246.233ZM250.289 20.0007L255.837 26.6255H253.894L248.436 20.0932L248.459 19.9198L253.566 14.4049H255.487L250.289 20.0007Z" fill="#1657DD"/>
<path d="M242.131 14.1274C243.013 14.1274 243.668 14.1583 244.097 14.2199C244.097 14.7518 244.041 15.2258 243.928 15.642C243.499 15.5803 242.915 15.5495 242.177 15.5495C241.333 15.5495 240.508 15.6497 239.702 15.8501V26.6255H238.098V14.7864C238.618 14.5938 239.258 14.4358 240.019 14.3124C240.787 14.1891 241.491 14.1274 242.131 14.1274Z" fill="#1657DD"/>
<path d="M230.053 26.9145C229.149 26.9145 228.343 26.7565 227.635 26.4405C226.927 26.1245 226.347 25.6851 225.895 25.1225C225.443 24.5598 225.097 23.9008 224.856 23.1454C224.622 22.3824 224.505 21.5461 224.505 20.6366C224.505 18.6095 225.006 17.0178 226.008 15.8617C227.01 14.7055 228.404 14.1274 230.189 14.1274C231.394 14.1274 232.418 14.4049 233.262 14.9599C234.113 15.5071 234.738 16.2471 235.138 17.1797C235.544 18.1046 235.748 19.176 235.748 20.3938C235.748 22.4286 235.251 24.0241 234.256 25.1803C233.262 26.3364 231.861 26.9145 230.053 26.9145ZM230.144 25.4924C231.462 25.4924 232.456 25.057 233.126 24.186C233.797 23.3073 234.132 22.0856 234.132 20.521C234.132 18.9409 233.789 17.7192 233.104 16.856C232.418 15.985 231.432 15.5495 230.144 15.5495C228.81 15.5495 227.808 15.9888 227.138 16.8675C226.475 17.7385 226.144 18.9563 226.144 20.521C226.144 22.1242 226.483 23.3536 227.161 24.2091C227.846 25.0647 228.84 25.4924 230.144 25.4924Z" fill="#1657DD"/>
<path d="M222.212 10.2428H223.929L218.901 26.6255H216.98L213.252 13.3413L209.433 26.6255H207.569L202.71 10.2428H204.484L208.518 24.7294L212.585 10.2428H213.952L217.975 24.8219L222.212 10.2428Z" fill="#1657DD"/>
<path d="M190.835 14.1274C191.807 14.1274 192.632 14.2276 193.309 14.428C193.987 14.6284 194.526 14.929 194.925 15.3298C195.332 15.7306 195.622 16.2085 195.795 16.7635C195.976 17.3107 196.066 17.962 196.066 18.7174V26.6255H194.451V19.0064C194.451 17.7886 194.187 16.9099 193.66 16.3704C193.132 15.8231 192.176 15.5495 190.79 15.5495C189.878 15.5495 188.956 15.6574 188.022 15.8732V26.6255H186.417V14.7864C188.029 14.3471 189.502 14.1274 190.835 14.1274Z" fill="#1657DD"/>
<path d="M178.373 26.9145C177.469 26.9145 176.663 26.7565 175.955 26.4405C175.247 26.1245 174.667 25.6851 174.215 25.1225C173.763 24.5598 173.416 23.9008 173.175 23.1454C172.942 22.3824 172.825 21.5461 172.825 20.6366C172.825 18.6095 173.326 17.0178 174.328 15.8617C175.329 14.7055 176.723 14.1274 178.508 14.1274C179.713 14.1274 180.738 14.4049 181.581 14.9599C182.433 15.5071 183.058 16.2471 183.457 17.1797C183.864 18.1046 184.067 19.176 184.067 20.3938C184.067 22.4286 183.57 24.0241 182.576 25.1803C181.581 26.3364 180.18 26.9145 178.373 26.9145ZM178.463 25.4924C179.781 25.4924 180.775 25.057 181.446 24.186C182.116 23.3073 182.451 22.0856 182.451 20.521C182.451 18.9409 182.109 17.7192 181.423 16.856C180.738 15.985 179.751 15.5495 178.463 15.5495C177.13 15.5495 176.128 15.9888 175.457 16.8675C174.795 17.7385 174.463 18.9563 174.463 20.521C174.463 22.1242 174.802 23.3536 175.48 24.2091C176.166 25.0647 177.16 25.4924 178.463 25.4924Z" fill="#1657DD"/>
<path d="M170.429 11.9887C170.234 12.1969 169.981 12.3009 169.672 12.3009C169.364 12.3009 169.104 12.1969 168.893 11.9887C168.689 11.7806 168.588 11.5224 168.588 11.2141C168.588 10.8981 168.689 10.6322 168.893 10.4164C169.104 10.2006 169.364 10.0927 169.672 10.0927C169.981 10.0927 170.234 10.2006 170.429 10.4164C170.633 10.6245 170.735 10.8904 170.735 11.2141C170.735 11.5224 170.633 11.7806 170.429 11.9887ZM168.882 26.6257V14.4051H170.486V26.6257H168.882Z" fill="#1657DD"/>
<path d="M162.678 23.0069C162.678 24.664 163.496 25.4926 165.13 25.4926C165.793 25.4926 166.467 25.3654 167.153 25.1111C167.108 25.5813 167.036 26.0553 166.938 26.5332C166.298 26.7875 165.605 26.9147 164.859 26.9147C163.646 26.9147 162.712 26.6064 162.057 25.9898C161.409 25.3654 161.085 24.4405 161.085 23.215V10.3586C161.643 10.1813 162.174 10.0927 162.678 10.0927V14.5207H167.175C167.153 14.9524 167.104 15.4264 167.028 15.9428H162.678V23.0069Z" fill="#1657DD"/>
<path d="M153.154 26.9145C152.25 26.9145 151.444 26.7565 150.736 26.4405C150.028 26.1245 149.448 25.6851 148.996 25.1225C148.544 24.5598 148.197 23.9008 147.956 23.1454C147.723 22.3824 147.606 21.5461 147.606 20.6366C147.606 18.6095 148.107 17.0178 149.109 15.8617C150.11 14.7055 151.504 14.1274 153.289 14.1274C154.494 14.1274 155.519 14.4049 156.362 14.9599C157.214 15.5071 157.839 16.2471 158.238 17.1797C158.645 18.1046 158.848 19.176 158.848 20.3938C158.848 22.4286 158.351 24.0241 157.357 25.1803C156.362 26.3364 154.961 26.9145 153.154 26.9145ZM153.244 25.4924C154.562 25.4924 155.556 25.057 156.227 24.186C156.897 23.3073 157.232 22.0856 157.232 20.521C157.232 18.9409 156.89 17.7192 156.204 16.856C155.519 15.985 154.532 15.5495 153.244 15.5495C151.911 15.5495 150.909 15.9888 150.239 16.8675C149.576 17.7385 149.244 18.9563 149.244 20.521C149.244 22.1242 149.583 23.3536 150.261 24.2091C150.947 25.0647 151.941 25.4924 153.244 25.4924Z" fill="#1657DD"/>
<path d="M144.397 10.0695L145.482 26.6256H143.866L143.425 19.2146C143.29 16.9023 143.188 14.6941 143.12 12.5899C142.322 14.8405 141.414 17.2453 140.397 19.8043L137.663 26.6256H136.409L133.471 19.1684C132.417 16.5401 131.599 14.3781 131.019 12.6824C130.959 14.5091 130.846 16.7328 130.68 19.3534L130.195 26.6256H128.59L129.709 10.3354C130.289 10.1581 130.903 10.0695 131.55 10.0695L137.064 24.2323L142.476 10.3354C142.989 10.1581 143.629 10.0695 144.397 10.0695Z" fill="#1657DD"/>
<path d="M114.851 26.9145C113.947 26.9145 113.141 26.7565 112.433 26.4405C111.725 26.1245 111.145 25.6851 110.693 25.1225C110.241 24.5598 109.894 23.9008 109.653 23.1454C109.42 22.3824 109.303 21.5461 109.303 20.6366C109.303 18.6095 109.804 17.0178 110.806 15.8617C111.808 14.7055 113.201 14.1274 114.986 14.1274C116.192 14.1274 117.216 14.4049 118.06 14.9599C118.911 15.5071 119.536 16.2471 119.935 17.1797C120.342 18.1046 120.545 19.176 120.545 20.3938C120.545 22.4286 120.048 24.0241 119.054 25.1803C118.06 26.3364 116.659 26.9145 114.851 26.9145ZM114.941 25.4924C116.259 25.4924 117.254 25.057 117.924 24.186C118.594 23.3073 118.93 22.0856 118.93 20.521C118.93 18.9409 118.587 17.7192 117.901 16.856C117.216 15.985 116.229 15.5495 114.941 15.5495C113.608 15.5495 112.606 15.9888 111.936 16.8675C111.273 17.7385 110.941 18.9563 110.941 20.521C110.941 22.1242 111.28 23.3536 111.958 24.2091C112.644 25.0647 113.638 25.4924 114.941 25.4924Z" fill="#1657DD"/>
<path d="M104.241 23.0069C104.241 24.664 105.058 25.4926 106.693 25.4926C107.356 25.4926 108.03 25.3654 108.716 25.1111C108.67 25.5813 108.599 26.0553 108.501 26.5332C107.861 26.7875 107.168 26.9147 106.422 26.9147C105.209 26.9147 104.275 26.6064 103.62 25.9898C102.972 25.3654 102.648 24.4405 102.648 23.215V10.3586C103.205 10.1813 103.737 10.0927 104.241 10.0927V14.5207H108.738C108.716 14.9524 108.667 15.4264 108.591 15.9428H104.241V23.0069Z" fill="#1657DD"/>
<path d="M98.0721 14.405H99.6653V26.6256H98.1625L98.0947 25.1804C97.1607 26.3365 95.8877 26.9146 94.2758 26.9146C92.9274 26.9146 91.8804 26.5408 91.1347 25.7931C90.389 25.0378 90.0161 23.9086 90.0161 22.4056V14.405H91.6092V22.0125C91.6092 24.3325 92.6676 25.4925 94.7842 25.4925C96.0497 25.4925 97.1456 25.0416 98.0721 24.1398V14.405Z" fill="#1657DD"/>
<path d="M86.762 26.6256L85.3949 22.6253H78.0846L76.7174 26.6256H75L80.672 10.3354C81.252 10.1967 81.9374 10.1273 82.7284 10.1273L88.4681 26.6256H86.762ZM78.593 21.1339H84.909L81.7341 11.8269L78.593 21.1339Z" fill="#1657DD"/>
</svg>
